<svg xmlns="http://www.w3.org/2000/svg" xmlns:xlink="http://www.w3.org/1999/xlink" width="100%" height="55px" viewBox="0 0 692 94" xml:space="preserve">
  <clipPath id="_clip1">
      <rect x="0" y="0" width="691.5" height="93.75" />
  </clipPath>
  <g clip-path="url(#_clip1)">
    <g id="Layer-1" serif:id="Layer 1">
      <path d="M691.5,41.482l0,37.016l-9.333,0l0,-35.297c0,-11.297 -6.755,-18.91 -16.817,-18.91c-12.65,0 -21.004,8.597 -21.004,24.315l0,29.892l-9.333,0l0,-62.282l9.333,0l0,11.022c4.916,-7.369 12.651,-11.541 22.843,-11.541c14.609,0 24.311,10.437 24.311,25.785" style="fill:#353535;fill-rule:nonzero;" />
      <path d="M598.279,23.121c10.072,0 18.545,6.505 20.264,18.416l-42.128,0c1.849,-11.911 12.041,-18.416 21.864,-18.416m18.905,36.338c-4.445,7.996 -11.613,10.816 -19.525,10.816c-10.432,0 -20.745,-8.109 -21.604,-21.738l51.941,0l0,-3.438c-0.62,-18.051 -13.39,-30.207 -29.717,-30.207c-16.698,0 -31.317,12.526 -31.317,31.926c0,19.28 14.619,31.68 30.697,31.68c13.552,0 24.05,-6.551 28.889,-19.039l-9.364,0Z" style="fill:#353535;fill-rule:nonzero;" />
      <path d="M558.445,41.9l0,36.598l-9.333,0l0,-34.862c0,-11.413 -6.755,-19.104 -16.817,-19.104c-12.65,0 -21.004,8.685 -21.004,24.565l0,29.401l-9.333,0l0,-77.693l9.333,0l0,26.704c4.917,-7.445 12.651,-11.66 22.843,-11.66c14.608,0 24.311,10.545 24.311,26.051" style="fill:#353535;fill-rule:nonzero;" />
      <path d="M471.228,78.498l-8.224,0l-17.196,-46.469l-17.307,46.469l-8.234,0l-22.962,-62.282l10.071,0l17.437,47.74l17.187,-47.74l7.495,0l17.187,47.614l17.436,-47.614l10.073,0l-22.963,62.282Z" style="fill:#353535;fill-rule:nonzero;" />
      <g>
          <rect x="340.023" y="0.175" width="9.333" height="78.324" style="fill:#353535;fill-rule:nonzero;" />
          <path d="M346.63,54.415l-1.032,-10.256l31.332,-28.449l11.555,0l-41.855,38.705Z" style="fill:#353535;fill-rule:nonzero;" />
          <path d="M350.86,41.866l8.923,-3.465l37.522,40.097l-12.245,0l-34.2,-36.632Z" style="fill:#353535;fill-rule:nonzero;" />
      </g>
      <path d="M324.225,46.573c0,-13.874 -10.312,-23.332 -23.082,-23.332c-12.9,0 -23.213,9.458 -23.213,23.332c0,13.999 10.313,23.577 23.213,23.577c12.77,0 23.082,-9.578 23.082,-23.577m9.083,0c0,18.541 -14.239,31.925 -32.165,31.925c-18.056,0 -32.296,-13.384 -32.296,-31.925c0,-18.541 14.24,-31.681 32.296,-31.681c17.926,0 32.165,13.14 32.165,31.681" style="fill:#353535;fill-rule:nonzero;" />
      <path d="M251.997,46.573c0,-13.874 -10.312,-23.332 -23.083,-23.332c-12.9,0 -23.212,9.458 -23.212,23.332c0,13.999 10.312,23.577 23.212,23.577c12.771,0 23.083,-9.578 23.083,-23.577m9.083,0c0,18.541 -14.239,31.925 -32.166,31.925c-18.056,0 -32.295,-13.384 -32.295,-31.925c0,-18.541 14.239,-31.681 32.295,-31.681c17.927,0 32.166,13.14 32.166,31.681" style="fill:#353535;fill-rule:nonzero;" />
      <path d="M179.843,46.698c0,-14.494 -10.072,-23.577 -22.593,-23.577c-11.421,0 -22.593,9.083 -22.593,23.577c0,14.364 11.172,23.452 22.593,23.452c12.521,0 22.593,-9.088 22.593,-23.452m9.083,0c0,19.155 -14.12,31.8 -30.207,31.8c-10.062,0 -18.666,-4.051 -24.062,-11.171l0,10.412l-9.333,0l0,-77.564l9.333,0l0,25.889c5.396,-7.12 14,-11.172 24.062,-11.172c16.087,0 30.207,12.645 30.207,31.806" style="fill:#353535;fill-rule:nonzero;" />
    </g>
    <g id="Layer1">
      <g>
        <path d="M46.876,93.75c25.847,0 46.874,-21.027 46.874,-46.874c0,-25.846 -21.027,-46.876 -46.874,-46.876l-46.876,0l0,46.876c0,25.847 21.027,46.874 46.876,46.874" style="fill:#fff;fill-rule:nonzero;" />
        <path class="fill-primary-lighter" d="M46.958,62.603c8.661,0 15.707,-7.046 15.707,-15.707c0,-8.661 -7.046,-15.708 -15.707,-15.708l-15.708,0l0,15.708c0,8.661 7.046,15.707 15.708,15.707" />
        <path class="fill-primary-lighter" d="M46.875,0l-15.625,0l0,15.563l15.708,0c17.277,0 31.332,14.057 31.332,31.333c0,17.277 -14.055,31.332 -31.332,31.332c-17.277,0 -31.333,-14.055 -31.333,-31.332l0,-46.896l-15.625,0l0,46.875c0,25.889 20.987,46.875 46.875,46.875c25.889,0 46.875,-20.986 46.875,-46.875c0,-25.888 -20.986,-46.875 -46.875,-46.875" />
      </g>
    </g>
  </g>
</svg>