<svg fill="none" height="320" viewBox="0 0 1306 320" width="1306" xmlns="http://www.w3.org/2000/svg" xmlns:xlink="http://www.w3.org/1999/xlink"><clipPath id="a"><path d="m0 0h1306v320h-1306z"/></clipPath><g clip-path="url(#a)" fill="#000"><path clip-rule="evenodd" d="m174.33 0c3.594 0 6.34 3.2073 5.786 6.75813l-19.366 124.14287c-.822 5.265 5.243 8.801 9.42 5.493l98.416-77.9325c2.774-2.1971 6.849-1.4497 8.663 1.5892l23.866 39.9813c1.855 3.108.475 7.138-2.897 8.455l-118.44 46.281c-4.996 1.952-4.957 9.035.06 10.931l118.275 44.726c3.4 1.286 4.819 5.327 2.97 8.456l-23.782 40.247c-1.817 3.075-5.94 3.821-8.719 1.578l-98.344-79.374c-4.162-3.359-10.277.159-9.466 5.445l19.42 126.479c.545 3.546-2.199 6.744-5.787 6.744h-47.631c-3.588 0-6.333-3.198-5.788-6.744l19.42-126.479c.812-5.286-5.304-8.804-9.466-5.445l-98.1629 79.228c-2.793 2.254-6.9384 1.488-8.7411-1.616l-23.198697-39.942c-1.820006-3.133-.385606-7.151 3.007437-8.423l119.66126-44.874c5.037-1.888 5.076-8.999.06-10.942l-119.824-46.432c-3.364598-1.304-4.76074-5.311-2.934687-8.4234l23.279587-39.6765c1.8-3.0678 5.897-3.8354 8.6856-1.6273l98.2355 77.7902c4.177 3.308 10.242-.228 9.421-5.493l-19.367-124.14287c-.553-3.55082 2.192-6.75813 5.786-6.75813z" fill-rule="evenodd"/><path d="m531.619 287.978-88.714-127.247-38.072 40.588v86.659h-30.888v-255.9558h30.888v129.8058l117.807-129.8058h39.508l-97.693 104.9418 105.594 151.014z"/><path d="m728.349 102.958v185.02h-29.092v-32.543c-11.972 23.158-31.008 34.737-57.108 34.737-18.197 0-33.282-5.851-45.255-17.551-11.972-11.701-17.958-28.034-17.958-48.998v-120.665h29.811v115.546c0 14.139 3.592 25.108 10.775 32.909 7.423 7.8 17.12 11.701 29.092 11.701 13.888 0 25.621-5.851 35.199-17.552 9.817-11.944 14.725-28.277 14.725-48.997v-93.607z"/><path d="m932.016 28v259.978h-28.733v-36.2c-10.536 26.815-31.248 40.222-62.136 40.222-25.62 0-45.734-9.263-60.34-27.789-14.606-18.771-21.909-41.563-21.909-68.377 0-26.571 7.303-49.241 21.909-68.011 14.846-18.77 35.079-28.1554 60.699-28.1554 28.973 0 49.206 11.2134 60.699 33.6394v-105.307zm-30.529 166.371c0-19.501-4.789-35.59-14.367-48.266-9.817-12.919-23.824-19.379-42.022-19.379-18.437 0-32.325 6.581-41.663 19.745-9.339 13.163-14.008 29.496-14.008 48.997 0 19.502 4.669 35.834 14.008 48.997 9.338 12.92 23.106 19.38 41.304 19.38 18.437 0 32.444-6.704 42.022-20.111 9.817-13.651 14.726-30.105 14.726-49.363z"/><path d="m1113.1 125.994c16.29 17.308 24.43 40.588 24.43 69.84s-8.14 52.654-24.43 70.205c-16.28 17.307-37.35 25.961-63.21 25.961s-46.93-8.776-63.213-26.327c-16.043-17.551-24.064-40.831-24.064-69.839 0-29.009 8.021-52.288 24.064-69.84 16.283-17.551 37.353-26.3264 63.213-26.3264s46.93 8.7754 63.21 26.3264zm-21.91 19.746c-10.53-12.189-24.42-18.283-41.66-18.283s-31.01 6.216-41.3 18.648c-10.06 12.189-15.088 28.765-15.088 49.729 0 21.451 5.148 38.271 15.448 50.46 10.53 11.944 24.54 17.917 42.02 17.917 17.24 0 30.89-6.095 40.94-18.283 10.3-12.432 15.45-29.13 15.45-50.094 0-21.452-5.27-38.15-15.81-50.094z"/><path d="m1305.94 233.862c0 18.77-7.06 33.152-21.19 43.146-14.12 9.995-31.48 14.992-52.08 14.992-21.31 0-39.38-5.241-54.23-15.723-14.84-10.726-23.11-26.083-24.78-46.072h30.89c1.67 11.457 6.94 20.111 15.8 25.961 9.1 5.851 20.59 8.776 34.48 8.776 11.97 0 21.55-2.316 28.73-6.948 7.19-4.875 10.78-11.578 10.78-20.11 0-7.801-2.88-13.529-8.62-17.186-5.51-3.9-14.25-6.704-26.22-8.41-19.4-3.169-33.28-5.85-41.66-8.044-10.06-2.682-19.16-7.801-27.3-15.358-8.14-7.556-12.21-18.77-12.21-33.639 0-17.308 6.34-30.837 19.03-40.588 12.93-9.994 29.69-14.9914 50.29-14.9914 20.35 0 37.59 4.9974 51.72 14.9914 14.12 9.995 21.31 24.499 21.55 43.513h-30.53c-.24-9.995-4.31-17.673-12.21-23.036-7.91-5.607-18.08-8.41-30.53-8.41-11.5 0-20.84 2.316-28.02 6.947-6.94 4.632-10.41 11.335-10.41 20.111 0 9.019 3.59 15.479 10.77 19.379 7.18 3.901 19.4 7.192 36.64 9.873 15.8 2.194 27.65 4.51 35.55 6.947 9.82 2.682 17.84 7.679 24.07 14.992 6.46 7.313 9.69 16.942 9.69 28.887z"/></g></svg>