<?xml version="1.0" encoding="utf-8"?>
<!-- Generator: Adobe Illustrator 22.0.1, SVG Export Plug-In . SVG Version: 6.00 Build 0)  -->
<svg version="1.1" id="Layer_1" xmlns="http://www.w3.org/2000/svg" xmlns:xlink="http://www.w3.org/1999/xlink" x="0px" y="0px"
	 viewBox="0 0 79.4 113.4" style="enable-background:new 0 0 79.4 113.4;" xml:space="preserve">
<style type="text/css">
	.st0{fill:#00AEEF;}
	.st1{fill:#FFFFFF;}
</style>
<g>
	<rect class="st0" width="79.4" height="113.4"/>
	<g>
		<path class="st1" d="M66,71.6c0.7,0,1.4,0,2.1,0c0.1,0,0.3,0.2,0.3,0.3c0.6,1.6,1,3.2,1.3,4.9c0.3,1.8,0.3,3.6,0.2,5.5
			c-0.2,2.7-0.8,5.3-1.9,7.8c-1.4,3.1-3.3,5.9-5.9,8.2c-3.1,2.8-6.7,4.6-10.7,5.5c-1.6,0.4-3.3,0.6-5,0.6c-3.7,0.1-7.3-0.6-10.7-2.1
			c-5.5-2.5-9.5-6.6-12-12.1c-0.1-0.3-0.3-0.5-0.7-0.4c-0.8,0-1.6,0-2.4,0c-0.3,0-0.4-0.1-0.5-0.3c-1-2-2-3.9-3-5.9
			c-1-1.9-2-3.9-3-5.8c0-0.1-0.1-0.1-0.2-0.3c0,4.1,0,8.2,0,12.2c-1.5,0-3,0-4.5,0c0-6,0-12,0-18c0.2,0,0.3,0,0.5,0
			c1.8,0,3.5,0,5.3,0c0.4,0,0.6,0.1,0.8,0.5c1.8,3.5,3.6,7.1,5.5,10.6c0.1,0.1,0.1,0.3,0.2,0.3c0-0.9,0-1.8,0-2.7
			c0-6.2,2-11.7,6.2-16.4c3.2-3.5,7.1-5.9,11.8-7.1c2.7-0.7,5.4-0.9,8.2-0.7c2,0.2,4,0.5,6,1.2c0.4,0.1,0.6,0.3,0.5,0.8
			c0,0.6,0,1.1,0,1.7c-1-0.3-2-0.6-3-0.9c-2.2-0.6-4.5-0.7-6.8-0.6c-4.9,0.3-9.2,2-13,5.1c-3.7,3.2-6.1,7.2-7.1,12
			c-0.5,2.3-0.6,4.6-0.4,6.9c0.6,5.7,3,10.6,7.3,14.4c3.2,2.8,7,4.5,11.3,5.1c4.6,0.6,9,0,13.1-2.1c5.1-2.6,8.7-6.6,10.7-12
			c1.1-3.1,1.5-6.2,1.2-9.5c-0.2-2.2-0.6-4.3-1.5-6.3C66.1,71.9,66.1,71.8,66,71.6z"/>
		<path class="st1" d="M34.5,89.7c-1.5,0-3,0-4.4,0c0-6,0-12,0-18c2.3,0,4.7,0,7,0c1.3,3.9,2.5,7.7,3.8,11.7c0.3-1,0.6-1.8,0.9-2.7
			c0.9-2.9,1.9-5.8,2.8-8.6c0.1-0.3,0.2-0.4,0.6-0.4c2.2,0,4.3,0,6.5,0c0,6,0,12,0,18.1c-1.5,0-2.9,0-4.4,0c0-4.4,0-8.7,0-13.1
			c0,0-0.1,0-0.1,0c-0.2,0.5-0.3,1-0.5,1.5c-1.2,3.7-2.4,7.5-3.7,11.2c-0.1,0.4-0.3,0.5-0.7,0.5c-1,0-2,0-3,0
			c-0.3,0-0.5-0.1-0.6-0.4c-1.3-4.1-2.7-8.1-4-12.2c-0.1-0.2-0.1-0.4-0.3-0.6C34.5,80.8,34.5,85.2,34.5,89.7z"/>
		<path class="st1" d="M57.2,76.1c1.5,0,2.9,0,4.4,0c0,4.5,0,9.1,0,13.6c-1.5,0-2.9,0-4.4,0C57.2,85.1,57.2,80.6,57.2,76.1z"/>
		<path class="st1" d="M54.3,64.9c1.2,0,2.3,0,3.5,0c0-1.2,0-2.3,0-3.5c1.1,0,2.1,0,3.2,0c0,1.1,0,2.3,0,3.5c1.2,0,2.4,0,3.5,0
			c0,1.1,0,2.1,0,3.1c-1.2,0-2.3,0-3.5,0c0,1.2,0,2.4,0,3.6c-1,0-1.9,0-2.8,0c-0.3,0-0.3-0.1-0.3-0.4c0-1,0-1.9,0-2.9
			c0-0.1,0-0.2,0-0.3c-1.2,0-2.3,0-3.5,0C54.3,67,54.3,66,54.3,64.9z"/>
		<path class="st1" d="M9.4,97.2c0-1,0-2,0-3.1c3.4,0,6.8,0,10.2,0c0,1,0,2,0,3.1C16.2,97.2,12.8,97.2,9.4,97.2z"/>
	</g>
</g>
</svg>
