<?xml version="1.0" encoding="utf-8"?>
<!-- Generator: Adobe Illustrator 26.5.0, SVG Export Plug-In . SVG Version: 6.00 Build 0)  -->
<svg version="1.1" id="Layer_1" xmlns="http://www.w3.org/2000/svg" xmlns:xlink="http://www.w3.org/1999/xlink" x="0px" y="0px"
	 viewBox="0 0 458.9 406.8" style="enable-background:new 0 0 458.9 406.8;" xml:space="preserve">
<style type="text/css">
	.st0{fill:#F62B44;}
	.st1{fill:#FFFFFF;}
	.st2{fill:#7C8B9A;}
</style>
<path class="st0" d="M356.2,109.2c-15.5,0-30.1-6.1-41.1-17c-11-11-17-25.6-17-41.1c0-7.6,1.4-14.9,4.2-21.8
	c-29-16.5-62.6-25.9-98.4-25.9c-110.5,0-200,89.5-200,200s89.5,200,200,200s200-89.5,200-200c0-35.8-9.4-69.4-25.9-98.4
	C371.2,107.8,363.8,109.2,356.2,109.2L356.2,109.2z"/>
<path class="st1" d="M146.9,123.9H81.2v148h30v-44.8h35.6c34.5,0,57.3-20.6,57.3-51.5S181.4,123.9,146.9,123.9L146.9,123.9z
	 M147.1,199.2h-35.8v-47.4h35.8c17.6,0,26.6,9.4,26.6,23.8S164.7,199.2,147.1,199.2z"/>
<path class="st1" d="M289.1,123.9h-36.7l-62.6,148h32l11.6-28.7h74.4l11.6,28.7h32C351.3,271.9,289.1,123.9,289.1,123.9z M244,215.3
	l26.6-65.2l26.4,65.2H244z"/>
<g>
	<circle class="st2" cx="356.2" cy="51" r="47.6"/>
	<circle class="st2" cx="428.5" cy="111.9" r="25.7"/>
	<circle class="st2" cx="440" cy="51" r="15"/>
</g>
</svg>
