<?xml version="1.0" encoding="UTF-8"?>
<svg id="Layer_2" data-name="Layer 2" xmlns="http://www.w3.org/2000/svg" viewBox="0 0 2261.48 1021.23">
  <defs>
    <style>
      .cls-1 {
        fill: #1d1d1b;
      }
    </style>
  </defs>
  <path class="cls-1" d="M631.5,913.08l-39.35,106.4h25.65l5.54-15.88h40.66l5.54,15.88h25.8l-39.35-106.4h-24.48ZM631.21,981.44l12.53-35.71,12.54,35.71h-25.07Z"/>
  <path class="cls-1" d="M811.55,954.04c-12.82-3.06-21.56-4.38-21.56-10.93,0-4.81,4.08-9.47,12.68-9.47,10.64,0,17.63,4.67,22.59,12.54l20.41-15.88c-11.37-12.25-22.89-18.95-42.42-18.95-22.73,0-38.92,14.13-38.92,32.64,0,21.86,18.07,27.55,33.53,31.05,15.01,3.64,22,5.1,22,12.24,0,5.83-4.66,9.91-13.26,9.91-11.95,0-20.26-5.54-26.53-15.01l-21.86,17.49c10.06,12.1,23.9,21.28,47.51,21.28s40.52-14.72,40.52-34.83c0-22.89-18.8-28.42-34.69-32.07Z"/>
  <path class="cls-1" d="M924.83,911.63c-30.32,0-54.37,24.48-54.37,54.65s24.05,54.65,54.37,54.65,54.51-24.34,54.51-54.65-24.2-54.65-54.51-54.65ZM924.83,995.87c-16.62,0-28.71-13.41-28.71-29.59s12.24-29.73,28.71-29.73,29,13.41,29,29.73-12.24,29.59-29,29.59Z"/>
  <polygon class="cls-1" points="1034.27 913.08 1008.76 913.08 1008.76 1019.48 1080.61 1019.48 1080.61 995.14 1034.27 995.14 1034.27 913.08"/>
  <rect class="cls-1" x="1107.15" y="913.08" width="25.65" height="106.4"/>
  <polygon class="cls-1" points="1159.38 936.55 1188.24 936.55 1188.24 1019.48 1213.02 1019.48 1213.02 936.55 1241.59 936.55 1241.59 913.08 1159.38 913.08 1159.38 936.55"/>
  <path class="cls-1" d="M1289.77,913.08l-39.35,106.4h25.65l5.54-15.88h40.66l5.54,15.88h25.8l-39.35-106.4h-24.48ZM1289.47,981.44l12.53-35.71,12.54,35.71h-25.07Z"/>
  <path class="cls-1" d="M1476.97,995.72c-16.91,0-28.42-13.27-28.42-29.44s11.8-29.73,28.71-29.73c11.66,0,20.11,5.97,24.92,15.45l22.29-14.13c-9.47-15.75-26.82-26.23-47.36-26.23-31.34,0-54.52,23.61-54.52,54.65s21.72,54.65,54.52,54.65c22.73,0,40.08-12.39,49.11-30.03l-23.46-12.54c-4.38,10.06-13.12,17.35-25.8,17.35Z"/>
  <path class="cls-1" d="M1602.34,911.63c-30.32,0-54.37,24.48-54.37,54.65s24.05,54.65,54.37,54.65,54.51-24.34,54.51-54.65-24.2-54.65-54.51-54.65ZM1602.34,995.87c-16.62,0-28.71-13.41-28.71-29.59s12.24-29.73,28.71-29.73,29,13.41,29,29.73-12.24,29.59-29,29.59Z"/>
  <polygon class="cls-1" points="1739.19 952.87 1710.48 913.08 1686.28 913.08 1686.28 1019.48 1711.2 1019.48 1711.2 952.14 1739.04 989.74 1767.17 952 1767.17 1019.48 1791.95 1019.48 1791.95 913.08 1768.77 913.08 1739.19 952.87"/>
  <path class="cls-1" d="M1868.34,913.08h-42.56v106.4h25.5v-26.67h16.91c25.21,0,41.24-18.66,41.24-40.08s-16.18-39.65-41.1-39.65ZM1867.03,969.19h-15.75v-33.08h15.75c9.47,0,16.61,6.85,16.61,16.61s-7.14,16.47-16.61,16.47Z"/>
  <path class="cls-1" d="M1962.45,913.08l-39.35,106.4h25.65l5.54-15.88h40.66l5.54,15.88h25.79l-39.35-106.4h-24.48ZM1962.16,981.44l12.53-35.71,12.54,35.71h-25.07Z"/>
  <polygon class="cls-1" points="2117.22 976.92 2077.14 913.08 2050.61 913.08 2050.61 1019.48 2074.95 1019.48 2074.95 952.58 2116.78 1019.48 2141.41 1019.48 2141.41 913.08 2117.22 913.08 2117.22 976.92"/>
  <polygon class="cls-1" points="2214.12 951.27 2193.71 913.08 2166.16 913.08 2201 974.88 2201 1019.48 2226.5 1019.48 2226.5 975.32 2261.48 913.08 2234.08 913.08 2214.12 951.27"/>
  <path class="cls-1" d="M0,0v806.6h2261.48V0H0ZM2191.48,734.2H70.01V70.99h2121.47v663.21Z"/>
  <path class="cls-1" d="M352.98,473.65h37.94c7.71,0,83.95-4.4,94.32-91.81v-15.51c-10.38-87.41-86.61-91.81-94.32-91.81h-107.95v253.42h70.01v-54.29ZM352.98,333.84h37.94c5.55,0,27.04,7.44,27.04,32.49v15.51c0,25.05-21.48,32.49-27.04,32.49h-37.94v-80.49Z"/>
  <path class="cls-1" d="M693.39,530.67h15.09c7.72,0,92.54-3.98,102.92-91.39v-164.75h-70.01v164.75c0,25.05-27.35,32.07-32.91,32.07h-15.09c-5.56,0-32.91-7.02-32.91-32.07v-164.75h-70.01v164.75c10.37,87.41,95.2,91.39,102.92,91.39Z"/>
  <path class="cls-1" d="M1148.25,449.55v-10.91c0-27.48-18.09-42.96-42.1-51.51-2.76-.98-5.6-1.88-8.5-2.68,5.2-1.79,10.08-4.37,14.34-8.01,6.85-5.84,12.13-14.42,14.67-26.87v-4.82c-.79-68.91-62.15-70.22-84.68-70.22h-106.06v253.42h123.04c9.12,0,88.45-1.47,89.29-78.39ZM1005.92,328.6h36.05c5.27,0,17.14,2.9,18.23,16.14v4.82c-.02.76-2.19,16.76-23.81,16.55h-30.48s0-37.51,0-37.51ZM1005.92,417.48h51.99c5.55,0,18.97,6.38,20.12,21.16v10.91c-1.15,14.78-13.52,19.07-19.07,19.07h-53.03v-51.14Z"/>
  <polygon class="cls-1" points="1439.39 468.62 1333.75 468.62 1333.75 274.52 1263.74 274.52 1263.74 527.94 1439.39 527.94 1439.39 468.62"/>
  <rect class="cls-1" x="1558.45" y="274.52" width="70.01" height="253.42"/>
  <path class="cls-1" d="M1844.58,528.88c27.11,7.1,55.81,5.38,81.86-4.91,26.05-10.29,48.06-28.59,62.79-52.21l-55.07-33.62c-10.67,22.16-31.4,37.19-55.21,37.19-34.73,0-62.88-31.95-62.88-71.37s28.16-71.37,62.88-71.37c22.24,0,41.78,13.1,52.96,32.88l52.17-37.15c-16.38-22.53-39.65-39.24-66.37-47.68-26.72-8.43-55.47-8.13-82.01.85-26.54,8.98-49.45,26.18-65.35,49.04-15.9,22.86-23.95,50.18-22.95,77.92.99,27.74,10.98,54.42,28.48,76.11,17.5,21.69,41.58,37.23,68.7,44.33Z"/>
</svg>